<svg xmlns="http://www.w3.org/2000/svg" viewBox="0 0 1024 1024">
  <rect width="1024" height="1024" fill="#bf684f"/>
  <path d="M501.221 832.734c-11.786-6.648-31.381-20.6-41.721-29.704-20.05-17.654-29.5-35.256-29.5-54.95 0-14.595 4.257-24.433 15.44-35.68 22.457-22.585 59.49-23.087 80.625-1.093 3.615 3.763 9.32 13.642 8.405 14.556-.202.202-3.652-.981-7.668-2.628-10.421-4.275-17.036-5.629-27.302-5.588-12.197.05-18.979 2.67-26.567 10.266-8.6 8.61-11.614 19.977-8.509 32.099 5.271 20.573 23.923 33.416 48.576 33.445 11.395.014 19.34-1.919 30.629-7.45 20.726-10.157 41.688-29.325 56.873-52.007 17.264-25.788 22.5-47.783 22.496-94.494-.002-12.653-.445-29.081-.986-36.506a7471 7471 0 0 1-1.247-17.338l-.265-3.837 11.76-7.163c18.361-11.183 30.124-20.262 41.153-31.763 14.873-15.512 24.236-29.708 29.272-44.38 2.38-6.933 5.45-19.717 4.874-20.294-.164-.163-1.323 2.307-2.575 5.49-15.37 39.042-53.888 73.556-101.801 91.218-23.62 8.707-57.188 14.07-88.028 14.064-45.206-.01-109.728-11.478-154.155-27.4-74.314-26.632-117.098-63.92-136.515-118.975-7.378-20.92-8.955-31.193-8.926-58.122.022-19.997.317-24.341 2.257-33.273 4.452-20.496 10.994-36.672 20.518-50.727 9.427-13.913 26.604-27.957 42.069-34.395 14.153-5.892 23.218-7.543 41.597-7.576 10.084-.018 19.222.507 23.5 1.349 20.312 3.998 45.476 14.027 65.413 26.07 40.933 24.725 82.596 66.13 112.561 111.864l6.689 10.208 6.168-5.608c7.355-6.686 22.274-16.698 32.669-21.925 44.745-22.497 101.808-24.063 139-3.814 34.26 18.653 54.592 54.474 52.687 92.827-1.039 20.91-7.292 38.888-20.555 59.09-3.017 4.596-5.239 9.24-5.623 11.754-2.725 17.83-4.098 24.91-7.205 37.156-10.408 41.02-29.242 80.553-54.55 114.5-20.2 27.093-49.95 58.34-81.182 85.265-31.525 27.178-75.901 60.792-80.16 60.72-.501-.01-5.088-2.372-10.19-5.25zm46.69-254.874c46.82-25.096 78.777-52.597 94.54-81.36 6.405-11.687 8.855-20.746 8.91-32.949.104-23.294-11.541-41.827-32.663-51.977-11.22-5.392-18.16-6.92-31.198-6.866-16.693.069-31.072 4.323-49.955 14.78-5.475 3.031-10.258 5.512-10.63 5.512-.37 0-2.49-2.403-4.707-5.34-22.78-30.172-62.339-56.03-96.521-63.09-9.8-2.024-27.453-2.042-35.154-.037-21.426 5.581-35.792 20.895-41.666 44.417-2.985 11.95-2.299 31.509 1.562 44.55 3.544 11.97 10.022 24.902 18.283 36.5 7.639 10.724 34.895 38.638 45.687 46.789 3.795 2.866 6.419 5.211 5.831 5.211-2.3 0-28.415-11.06-40.845-17.298-57.703-28.957-85.372-60.735-95.082-109.202-1.788-8.927-1.806-8.96-2.131-4-.181 2.75.184 9.275.81 14.5 5.398 45.037 30.568 75.272 85.527 102.735 27.688 13.836 63.238 26.132 113.307 39.192 18.104 4.722 29.11 8.481 28.02 9.57-.26.261-4.268 1.095-8.905 1.854l-8.431 1.38 3.574 1.574c3.056 1.347 13.339 4.002 29.426 7.6 8.934 1.997 12.254 1.398 22.41-4.045zm-46.589-27.14c-21.89-14.775-42.198-33.748-50.377-47.061-6.703-10.913-9.365-22.374-7.808-33.626 1.125-8.13 3.851-13.809 9.346-19.463 15.099-15.535 38.94-14.388 55.099 2.65 3.275 3.454 6.645 7.358 7.489 8.675l1.534 2.396 3.318-5.17c5.989-9.334 15.995-16.042 27.024-18.119 15.248-2.87 32.843 7.435 38.066 22.296 4.77 13.572.822 28.743-11.882 45.65-9.847 13.106-24.027 26.829-39.131 37.869-12.987 9.493-17.13 12.18-18.734 12.153-.971-.017-7.246-3.73-13.944-8.25m11.728 236.4c.028-.34 2.753-1.901 6.056-3.467 3.304-1.565 9.244-5.423 13.2-8.573 18.419-14.662 27.024-29.252 28.349-48.067 1.388-19.723-7.547-35.402-25.249-44.303-14.537-7.31-28.196-10.314-68.906-15.151-59.048-7.016-96.554-17.126-129-34.775-31.29-17.02-52.61-39.422-68.156-71.616-5.656-11.713-14.308-35.878-14.331-40.026-.012-2.128.551-1.836 5.782 3 22.622 20.917 67.924 40.734 123.205 53.895 9.386 2.235 9.591 2.349 17.077 9.458 11.395 10.822 23.329 18.415 38.923 24.767 13.13 5.348 22.22 8.15 49.5 15.258 47.967 12.498 65.046 20.026 80.506 35.486 11.997 11.997 17.885 25.828 18.73 43.994.64 13.778-1.496 24.096-7.43 35.886-8.84 17.562-29.868 33.775-53.806 41.484-6.211 2-14.517 3.582-14.45 2.75m190.343-437.536c-37.848-7.163-56.25-51.782-35.029-84.937 6.151-9.61 14.686-16.53 26.136-21.19 5.875-2.39 8.79-2.914 18.135-3.257 17.836-.654 29.435 3.86 41.87 16.295 11.58 11.58 16.587 23.514 16.675 39.751.082 15.045-5.405 28.228-16.13 38.754-12.842 12.604-32.619 18.187-51.657 14.584M343 234.998c-26.233-2.832-47.155-19.557-56.23-44.95-2.92-8.172-3.6-28.215-1.308-38.52 5.215-23.44 24.496-43.384 47.505-49.138 8.371-2.093 28.157-1.508 35.533 1.051 22.564 7.828 38.25 23.85 45.09 46.059 1.416 4.594 1.856 9.281 1.88 20 .026 12.078-.287 14.917-2.278 20.68-5.123 14.827-13.772 26.05-26.774 34.747-12.63 8.446-27.188 11.824-43.418 10.071" fill="#fffdfa" transform="translate(72 72) scale(.86)"/>
</svg>
